<svg width="95" height="91" viewBox="0 0 95 91" fill="none" xmlns="http://www.w3.org/2000/svg">
<path d="M47.0548 37.2153C57.8297 37.2636 57.8291 53.6466 47.0542 53.6936C36.2794 53.6454 36.2806 37.2624 47.0548 37.2153Z" fill="white"/>
<path d="M13.6198 39.6729C23.5624 39.6729 31.6229 46.3893 31.6229 46.3893C31.6229 46.3893 23.5624 53.1058 13.6198 53.1058C3.67728 53.1058 0 50.099 0 46.3893C0.000610646 42.6797 3.67728 39.6729 13.6198 39.6729Z" fill="white"/>
<path d="M38.8164 77.38C38.8164 67.4375 45.5329 59.377 45.5329 59.377C45.5329 59.377 52.2494 67.4375 52.2494 77.38C52.2494 87.3225 49.2426 90.9999 45.5329 90.9999C41.8232 90.9999 38.8164 87.3225 38.8164 77.38Z" fill="white"/>
<path d="M40.3389 13.6198C40.3389 23.5624 47.0554 31.6229 47.0554 31.6229C47.0554 31.6229 53.7719 23.563 53.7719 13.6198C53.7719 3.6773 50.765 0 47.0554 0C43.3457 0.000610646 40.3389 3.6773 40.3389 13.6198Z" fill="white"/>
<path d="M29.3478 19.663C36.3134 26.7581 37.1677 37.2148 37.1677 37.2148C37.1677 37.2148 26.7281 36.1682 19.7625 29.0737C12.7968 21.9786 12.367 17.2479 15.0135 14.6496C17.6606 12.0507 22.3822 12.5679 29.3478 19.663Z" fill="white"/>
<path d="M29.3478 71.2456C36.3134 64.1506 37.1677 53.6938 37.1677 53.6938C37.1677 53.6938 26.7281 54.7405 19.7625 61.8356C12.7968 68.9307 12.367 73.6608 15.0135 76.2597C17.6606 78.858 22.3822 78.3407 29.3478 71.2456Z" fill="white"/>
<path d="M80.4904 38.4106C70.5478 38.4106 62.4873 45.1271 62.4873 45.1271C62.4873 45.1271 70.5478 51.8436 80.4904 51.8436C90.4329 51.8436 94.1102 48.8368 94.1102 45.1271C94.1102 41.4175 90.4329 38.4106 80.4904 38.4106Z" fill="white"/>
<path d="M64.7613 18.4013C57.7957 25.4964 56.9414 35.9531 56.9414 35.9531C56.9414 35.9531 67.381 34.9064 74.3466 27.8119C81.3123 20.7169 81.7422 15.9862 79.0956 13.3879C76.4485 10.789 71.727 11.3062 64.7613 18.4013Z" fill="white"/>
<path d="M64.7613 69.983C57.7957 62.8879 56.9414 52.4312 56.9414 52.4312C56.9414 52.4312 67.381 53.4778 74.3466 60.5729C81.3123 67.668 81.7422 72.3981 79.0956 74.997C76.4485 77.5953 71.727 77.078 64.7613 69.983Z" fill="white"/>
</svg>
