<svg width="129" height="125" viewBox="0 0 129 125" fill="none" xmlns="http://www.w3.org/2000/svg">
<path d="M64.5001 51.0127C79.2696 51.0788 79.2688 73.5357 64.4993 73.6001C49.7297 73.534 49.7314 51.0771 64.5001 51.0127Z" fill="#DD740B"/>
<path d="M18.6692 54.3809C32.2979 54.3809 43.3468 63.5874 43.3468 63.5874C43.3468 63.5874 32.2979 72.794 18.6692 72.794C5.0406 72.794 0 68.6724 0 63.5874C0.000837037 58.5024 5.0406 54.3809 18.6692 54.3809Z" fill="#DD740B"/>
<path d="M53.207 106.068C53.207 92.4395 62.4136 81.3906 62.4136 81.3906C62.4136 81.3906 71.6202 92.4395 71.6202 106.068C71.6202 119.697 67.4986 124.737 62.4136 124.737C57.3286 124.737 53.207 119.697 53.207 106.068Z" fill="#DD740B"/>
<path d="M55.2939 18.6693C55.2939 32.2979 64.5005 43.3468 64.5005 43.3468C64.5005 43.3468 73.7071 32.2987 73.7071 18.6693C73.7071 5.04062 69.5855 0 64.5005 0C59.4155 0.000837037 55.2939 5.04062 55.2939 18.6693Z" fill="#DD740B"/>
<path d="M40.2283 26.9532C49.7764 36.6787 50.9474 51.0122 50.9474 51.0122C50.9474 51.0122 36.6374 49.5775 27.0893 39.8528C17.5412 30.1273 16.952 23.6427 20.5797 20.0811C24.2082 16.5187 30.6802 17.2277 40.2283 26.9532Z" fill="#DD740B"/>
<path d="M40.2283 97.6591C49.7764 87.9335 50.9474 73.6001 50.9474 73.6001C50.9474 73.6001 36.6374 75.0348 27.0893 84.7603C17.5412 94.4859 16.952 100.97 20.5797 104.532C24.2082 108.094 30.6802 107.385 40.2283 97.6591Z" fill="#DD740B"/>
<path d="M110.331 52.6514C96.7022 52.6514 85.6533 61.8579 85.6533 61.8579C85.6533 61.8579 96.7022 71.0645 110.331 71.0645C123.959 71.0645 129 66.9429 129 61.8579C129 56.7729 123.959 52.6514 110.331 52.6514Z" fill="#DD740B"/>
<path d="M88.7708 25.2237C79.2227 34.9493 78.0518 49.2827 78.0518 49.2827C78.0518 49.2827 92.3617 47.848 101.91 38.1233C111.458 28.3977 112.047 21.9132 108.419 18.3517C104.791 14.7892 98.3189 15.4982 88.7708 25.2237Z" fill="#DD740B"/>
<path d="M88.7708 95.9286C79.2227 86.2031 78.0518 71.8696 78.0518 71.8696C78.0518 71.8696 92.3617 73.3043 101.91 83.0298C111.458 92.7554 112.047 99.2391 108.419 102.802C104.791 106.363 98.3189 105.654 88.7708 95.9286Z" fill="#DD740B"/>
</svg>
