<svg width="181" height="297" viewBox="0 0 181 297" fill="none" xmlns="http://www.w3.org/2000/svg">
<path d="M32.3459 161.29C38.9428 160.596 43.7281 154.686 43.0343 148.089C42.3404 141.492 36.4301 136.707 29.8333 137.4C23.2365 138.094 18.4511 144.005 19.145 150.601C19.8388 157.198 25.7491 161.983 32.3459 161.29Z" fill="#32522D" fill-opacity="0.8"/>
<path d="M42.4438 132.717C42.4438 132.717 57.1599 128.551 65.3456 116.589C73.5312 104.628 72.9411 97.7286 68.4791 94.6747C64.017 91.6208 57.3723 93.5687 49.1859 105.53C41.0003 117.491 42.4438 132.717 42.4438 132.717Z" fill="#32522D" fill-opacity="0.8"/>
<path d="M17.8868 85.9521C12.563 86.8988 9.18585 92.9439 11.7245 107.214C14.2632 121.484 25.9602 131.338 25.9602 131.338C25.9602 131.338 33.5422 118.055 31.0035 103.785C28.4648 89.5144 23.2105 85.0054 17.8868 85.9521Z" fill="#32522D" fill-opacity="0.8"/>
<path d="M-15.2848 146.621C-29.5055 149.422 -33.9179 154.759 -32.8731 160.064C-31.8284 165.369 -25.7227 168.635 -11.5013 165.834C2.71999 163.033 12.3561 151.157 12.3561 151.157C12.3561 151.157 -1.06351 143.821 -15.2848 146.621Z" fill="#32522D" fill-opacity="0.8"/>
<path d="M74.6484 131.407C60.4271 134.208 50.791 146.084 50.791 146.084C50.791 146.084 64.2112 153.421 78.4326 150.62C92.6539 147.819 97.0656 142.483 96.0208 137.177C94.9754 131.871 88.8697 128.606 74.6484 131.407Z" fill="#32522D" fill-opacity="0.8"/>
<path d="M45.2793 211.293C50.603 210.346 53.9802 204.301 51.4415 190.031C48.9035 175.76 37.2059 165.907 37.2059 165.907C37.2059 165.907 29.6239 179.19 32.1626 193.46C34.7012 207.73 39.9556 212.239 45.2793 211.293Z" fill="#32522D" fill-opacity="0.8"/>
<path d="M137.421 46.466C113.536 42.351 87.7017 50.3876 68.6652 67.2259C72.1138 44.06 66.0829 19.7195 51.863 1.34989C51.258 0.568555 50.3487 0.0805797 49.3625 0.00911601C48.3763 -0.0623477 47.4057 0.288834 46.6945 0.975566C25.3534 21.5564 14.5535 39.8083 9.21823 65.3991C-2.60255 46.6116 -24.4221 36.4223 -46.6787 28.2877C-48.4196 27.6513 -50.3539 28.4918 -51.0774 30.1961C-57.0416 44.2383 -58.2953 60.1251 -54.6077 74.9283C-52.2134 84.5405 -47.7649 93.5783 -41.6946 101.364C-65.247 95.5466 -93.0804 101.136 -111.741 116.613C-113.194 117.818 -113.421 119.957 -112.257 121.441C-96.9095 141.004 -74.5352 155.271 -50.7943 161.013C-74.4712 172.988 -93.5684 195.618 -100.95 221.317C-101.217 222.244 -101.086 223.241 -100.59 224.068C-100.093 224.896 -99.2753 225.48 -98.3313 225.682C-71.9741 231.303 -44.4408 226.581 -23.099 213.059C-25.1783 236.245 -23.474 274.933 -4.80908 295.085C-4.14821 295.799 -3.2185 296.202 -2.2466 296.2C-1.27401 296.198 -0.34634 295.789 0.310446 295.072C16.3741 277.546 28.9504 255.858 36.2608 233.263C49.9022 257.004 72.4207 277.268 97.9292 288.424C98.9249 288.86 100.066 288.806 101.016 288.277C101.967 287.748 102.615 286.806 102.769 285.731C106.311 261.091 103.92 236.331 95.6635 211.964C115.279 225.049 140.072 229.36 164.224 223.461C165.062 223.257 165.788 222.749 166.27 222.046C166.351 221.928 166.424 221.805 166.49 221.677C166.952 220.783 167.005 219.732 166.634 218.796C157.529 195.839 140.7 176.547 119.417 164.222C141.918 161.837 164.039 149.924 179.613 131.207C180.777 129.798 180.664 127.72 179.334 126.456C160.393 108.469 132.29 99.7725 105.764 102.849C118.231 92.245 128.691 79.9022 136.424 66.5759C139.282 61.6524 142.286 55.1812 140.127 48.7841C139.719 47.5733 138.68 46.6838 137.421 46.466ZM48.6812 8.78281C62.2246 28.3441 66.3021 54.2549 59.2694 77.3764C59.0802 77.9978 59.0788 78.6362 59.2285 79.2324C57.8966 78.6968 56.5551 78.2047 55.2048 77.7494C59.1217 59.7153 55.7888 39.3986 45.9506 21.7797C45.7648 21.4462 45.4265 21.2263 45.0467 21.1903C44.6663 21.1542 44.2933 21.3073 44.049 21.5993C30.5335 37.7174 24.9804 54.457 21.0281 74.4668C18.827 74.7615 16.6423 75.1604 14.4752 75.6456C18.6535 47.9939 28.101 29.4025 48.6812 8.78281ZM88.9738 181.754C88.0767 178.009 84.5144 173.514 77.0734 168.421C65.1124 160.236 49.8859 161.679 49.8859 161.679C49.8859 161.679 54.0525 176.395 66.0142 184.581C73.5349 189.728 79.0512 191.401 82.8721 190.828C61.4133 217.739 22.3744 223.944 -6.47453 204.201C-7.07278 203.792 -7.64653 203.361 -8.22709 202.935C-3.76503 205.942 2.85931 203.969 11.0157 192.051C19.2014 180.09 17.7578 164.863 17.7578 164.863C17.7578 164.863 3.04172 169.03 -5.14394 180.991C-13.2609 192.852 -12.7436 199.729 -8.38431 202.822C-35.1369 183.1 -42.9932 146.615 -27.3453 117.794C-26.417 121.523 -22.8574 125.989 -15.4694 131.046C-3.50844 139.231 11.7181 137.788 11.7181 137.788C11.7181 137.788 7.55142 123.072 -4.41025 114.886C-11.9908 109.698 -17.5317 108.043 -21.3553 108.656C-0.00944417 81.2008 39.4256 74.7445 68.5032 94.6441C97.0233 114.163 105.515 152.15 88.9738 181.754ZM143.739 211.16C125.682 209.006 108.14 202.809 92.7253 193.162C92.9656 192.823 93.2181 192.498 93.4529 192.154C97.7155 185.926 100.902 179.276 103.084 172.429C120.048 180.308 134.687 194.236 143.739 211.16ZM78.4468 208.363C82.9457 229.872 85.5381 247.407 86.7074 264.239C72.4745 251.932 59.5702 238.087 48.2606 223.051C59.1584 220.503 69.5078 215.548 78.4468 208.363ZM-27.1262 197.817C-42.4589 205.597 -59.4781 210.097 -76.6519 210.894C-67.329 195.85 -54.8718 183.273 -40.4048 174.289C-37.4666 182.763 -33.0053 190.749 -27.1262 197.817ZM18.631 224.042C15.4601 239.33 9.57419 254.02 0.292749 269.814C-5.24535 252.416 -7.28173 233.786 -5.64827 215.597C2.07117 219.881 10.2847 222.671 18.631 224.042ZM-44.4027 143.826C-57.6038 139.847 -74.0146 132.54 -82.7699 123.1C-71.1438 118.269 -53.1356 118.525 -39.2485 121.392C-42.1506 128.665 -43.8521 136.23 -44.4027 143.826ZM-24.7794 98.3357C-33.027 86.0644 -38.0377 67.5274 -37.5245 51.0417C-20.9007 58.1193 -9.24323 67.3572 -0.301421 80.5685C-9.40114 84.6896 -17.7583 90.6578 -24.7794 98.3357ZM23.4477 74.1905C27.2128 55.3989 32.48 39.5605 44.7405 24.4082C53.6319 41.1076 56.598 60.1026 52.9881 77.0232C43.3187 74.0959 33.2736 73.1948 23.4477 74.1905ZM100.401 119.358C119.528 116.9 140.104 120.924 157.702 130.617C142.559 141.189 125 147.71 106.643 149.603C106.653 139.216 104.521 128.907 100.401 119.358ZM70.8295 85.0959C86.7945 71.5702 102.514 63.7139 121.194 59.9556C111.629 78.6873 101.455 91.2697 88.5811 100.339C84.3402 95.3622 79.3942 90.8511 73.7452 86.9846C72.7842 86.3271 71.8096 85.7036 70.8295 85.0959ZM-47.852 73.2451C-50.9086 60.9745 -50.1994 47.8769 -45.8851 36.0057C-22.7744 44.7018 -0.79486 55.9877 7.56095 77.5391C5.64232 78.1625 3.74819 78.8649 1.8806 79.6415C-7.62816 65.425 -20.1173 55.6671 -38.1724 48.2553C-38.5202 48.1124 -38.915 48.1471 -39.2328 48.3479C-39.55 48.5493 -39.7501 48.8903 -39.7712 49.266C-40.739 67.1149 -35.4908 86.8906 -26.3687 100.122C-27.5094 101.452 -28.6072 102.834 -29.6669 104.259C-38.5134 95.9168 -44.9077 85.0652 -47.852 73.2451ZM-104.577 119.852C-85.2425 105.665 -55.8934 102.091 -34.2242 111.143C-35.7699 113.773 -37.142 116.462 -38.3365 119.201C-52.8742 116.113 -72.5444 115.631 -85.1867 121.636C-85.512 121.791 -85.7475 122.087 -85.8231 122.438C-85.8993 122.79 -85.8081 123.157 -85.576 123.432C-76.7023 133.945 -58.6907 142.004 -44.5422 146.208C-44.6661 149.229 -44.6096 152.248 -44.3741 155.252C-67.2527 150.95 -89.2098 138.09 -104.577 119.852ZM-93.1178 219.6C-85.0649 195.916 -65.6445 174.868 -42.9571 165.05C-42.4609 167.401 -41.8545 169.727 -41.1378 172.023C-56.7142 181.581 -70.0371 195.192 -79.7596 211.541C-79.976 211.905 -79.9773 212.357 -79.763 212.723C-79.5486 213.087 -79.1525 213.307 -78.7291 213.294C-60.3051 212.77 -41.9859 208.045 -25.5846 199.63C-24.3602 201.011 -23.0711 202.346 -21.7337 203.645C-41.1698 218.166 -67.5113 224.03 -93.1178 219.6ZM-2.18466 287.416C-20.3773 263.863 -16.8865 220.199 -15.6301 208.975C-14.36 209.968 -13.0648 210.939 -11.7166 211.862C-10.4472 212.731 -9.15544 213.542 -7.85276 214.323C-9.77547 234.011 -7.46344 254.245 -1.11202 272.969C-0.967051 273.397 -0.587272 273.701 -0.138072 273.751C0.288669 273.797 0.703836 273.604 0.944091 273.252C0.956342 273.234 0.968588 273.216 0.980159 273.197C11.1831 256.289 17.5713 240.681 20.9342 224.381C24.4312 224.845 27.9431 225.066 31.4475 225.041C25.1866 247.605 13.355 269.553 -2.18466 287.416ZM96.4741 280.088C72.2206 268.307 51.2852 247.911 39.5025 224.551C41.5988 224.313 43.6842 223.994 45.7525 223.583C57.8673 239.825 71.8293 254.701 87.2947 267.795C87.6486 268.095 88.1482 268.155 88.5641 267.947C88.7437 267.857 88.8928 267.724 89.0017 267.565C89.1446 267.357 89.2181 267.102 89.2025 266.84C88.1046 248.734 85.3931 230.037 80.4655 206.686C81.9322 205.419 83.3486 204.08 84.7275 202.688C84.7472 202.743 84.7506 202.8 84.7738 202.854C95.4361 228.298 99.3653 254.256 96.4741 280.088ZM158.57 217.575C133.627 222.4 108.383 215.578 90.3425 198.95C89.9185 198.559 89.4169 198.298 88.8894 198.156C89.7374 197.147 90.5616 196.108 91.3641 195.046C107.72 205.309 126.436 211.757 145.651 213.705C146.074 213.748 146.491 213.534 146.725 213.207C146.964 212.858 146.994 212.407 146.804 212.03C137.567 193.681 121.95 178.549 103.753 170.186C104.259 168.409 104.711 166.623 105.083 164.826C128.854 175.052 148.11 194.052 158.57 217.575ZM172.084 129.274C154.809 148.509 129.948 159.21 106.223 157.521C106.42 155.661 106.532 153.798 106.591 151.936C126.061 149.979 144.661 142.932 160.545 131.444C160.655 131.363 160.748 131.268 160.823 131.159C160.964 130.952 161.037 130.701 161.024 130.443C161.004 130.05 160.785 129.694 160.444 129.498C141.86 118.79 119.808 114.371 99.4122 117.159C98.5234 115.266 97.5705 113.402 96.5224 111.581C122.658 105.12 152.161 112.005 172.084 129.274ZM130.404 63.0809C121.237 78.8669 108.014 93.2175 92.0597 104.744C91.4124 103.858 90.7495 102.981 90.06 102.119C98.7854 95.9448 106.301 88.2253 113.201 78.1421C117.061 72.5026 120.734 66.1287 124.327 58.8891C124.523 58.4971 124.479 58.0275 124.215 57.6763C123.951 57.3258 123.513 57.1535 123.081 57.2318C102.996 60.869 85.6735 69.3561 68.7169 83.8503C67.24 82.9996 65.7481 82.1924 64.2358 81.4519C64.6155 81.2491 64.9647 80.9802 65.2567 80.6359C82.167 60.639 109.468 49.7145 133.886 52.9671C134.036 56.298 132.168 60.0427 130.404 63.0809Z" fill="#32522D" fill-opacity="0.8"/>
<path d="M7.39701 27.593C7.45622 23.4237 4.12431 19.9958 -0.0449989 19.9366C-4.21431 19.8773 -7.64217 23.2092 -7.70138 27.3785C-7.76059 31.5478 -4.42873 34.9757 -0.259418 35.0349C3.90989 35.0942 7.3378 31.7623 7.39701 27.593Z" fill="#32522D" fill-opacity="0.8"/>
<path d="M83.2809 42.3445C86.7221 44.6994 91.4203 43.8187 93.7752 40.3782C96.1301 36.9371 95.2494 32.2389 91.8089 29.884C88.3678 27.5291 83.6695 28.4098 81.3146 31.8502C78.9591 35.2907 79.8398 39.9896 83.2809 42.3445Z" fill="#32522D" fill-opacity="0.8"/>
<path d="M151.323 91.0128C152.232 86.9431 149.669 82.9078 145.599 81.9997C141.529 81.0915 137.494 83.6544 136.586 87.724C135.678 91.7937 138.241 95.829 142.31 96.7372C146.38 97.6453 150.415 95.0824 151.323 91.0128Z" fill="#32522D" fill-opacity="0.8"/>
<path d="M162.133 173.239C162.58 169.094 159.582 165.37 155.437 164.923C151.291 164.475 147.568 167.473 147.121 171.619C146.673 175.764 149.671 179.488 153.817 179.935C157.962 180.383 161.686 177.385 162.133 173.239Z" fill="#32522D" fill-opacity="0.8"/>
<path d="M113.509 232.439C111.155 235.88 112.035 240.579 115.476 242.934C118.917 245.288 123.615 244.408 125.97 240.967C128.325 237.526 127.444 232.828 124.004 230.473C120.563 228.118 115.864 228.998 113.509 232.439Z" fill="#32522D" fill-opacity="0.8"/>
<path d="M48.619 276.129C51.0292 272.726 50.2246 268.014 46.8221 265.604C43.4196 263.194 38.7076 263.998 36.2975 267.401C33.8874 270.803 34.6919 275.515 38.0944 277.925C41.4969 280.336 46.2089 279.531 48.619 276.129Z" fill="#32522D" fill-opacity="0.8"/>
</svg>
