<svg width="62" height="111" viewBox="0 0 62 111" fill="none" xmlns="http://www.w3.org/2000/svg">
<path d="M57.3964 45.3945C70.5393 45.4534 70.5386 65.437 57.3956 65.4944C44.2527 65.4356 44.2542 45.4519 57.3964 45.3945Z" fill="#DD740B"/>
<path d="M16.6132 48.3921C28.7409 48.3921 38.573 56.5847 38.573 56.5847C38.573 56.5847 28.7409 64.7774 16.6132 64.7774C4.48548 64.7774 0 61.1097 0 56.5847C0.000744854 52.0597 4.48548 48.3921 16.6132 48.3921Z" fill="#DD740B"/>
<path d="M47.3467 94.3865C47.3467 82.2588 55.5393 72.4268 55.5393 72.4268C55.5393 72.4268 63.732 82.2588 63.732 94.3865C63.732 106.514 60.0643 111 55.5393 111C51.0143 111 47.3467 106.514 47.3467 94.3865Z" fill="#DD740B"/>
<path d="M49.2041 16.6132C49.2041 28.7409 57.3968 38.573 57.3968 38.573C57.3968 38.573 65.5894 28.7417 65.5894 16.6132C65.5894 4.4855 61.9218 0 57.3968 0C52.8718 0.000744854 49.2041 4.4855 49.2041 16.6132Z" fill="#DD740B"/>
<path d="M35.7978 23.9851C44.2943 32.6395 45.3364 45.3944 45.3364 45.3944C45.3364 45.3944 32.6023 44.1177 24.1058 35.464C15.6092 26.8096 15.0849 21.0392 18.3131 17.8698C21.542 14.6998 27.3012 15.3306 35.7978 23.9851Z" fill="#DD740B"/>
<path d="M35.7978 86.904C44.2943 78.2495 45.3364 65.4946 45.3364 65.4946C45.3364 65.4946 32.6023 66.7713 24.1058 75.4258C15.6092 84.0802 15.0849 89.8499 18.3131 93.02C21.542 96.1893 27.3012 95.5584 35.7978 86.904Z" fill="#DD740B"/>
</svg>
