<svg width="569" height="550" viewBox="0 0 569 550" fill="none" xmlns="http://www.w3.org/2000/svg">
<path d="M289.597 280.961C291.942 268.956 284.111 257.324 272.107 254.979C260.102 252.634 248.47 260.465 246.125 272.469C243.78 284.474 251.611 296.106 263.615 298.451C275.62 300.796 287.252 292.966 289.597 280.961Z" fill="white"/>
<path d="M287.48 245.072C287.48 245.072 314.234 236.148 328.299 213.42C342.364 190.692 340.692 178.034 332.212 172.787C323.733 167.539 311.658 171.691 297.594 194.419C283.529 217.146 287.48 245.072 287.48 245.072Z" fill="white"/>
<path d="M238.249 160.949C228.522 163.144 222.814 174.566 228.7 200.638C234.586 226.709 256.969 243.868 256.969 243.868C256.969 243.868 269.809 218.757 263.922 192.686C258.036 166.614 247.975 158.753 238.249 160.949Z" fill="white"/>
<path d="M182.357 275.526C156.398 281.891 148.723 292.095 151.098 301.779C153.472 311.464 164.997 316.961 190.956 310.596C216.915 304.23 233.659 281.535 233.659 281.535C233.659 281.535 208.316 269.16 182.357 275.526Z" fill="white"/>
<path d="M346.657 239.895C320.698 246.26 303.954 268.955 303.954 268.955C303.954 268.955 329.298 281.33 355.256 274.965C381.215 268.6 388.89 258.396 386.515 248.711C384.141 239.027 372.616 233.53 346.657 239.895Z" fill="white"/>
<path d="M299.365 389.542C309.091 387.346 314.8 375.925 308.914 349.853C303.028 323.782 280.645 306.623 280.645 306.623C280.645 306.623 267.805 331.734 273.692 357.805C279.578 383.876 289.639 391.738 299.365 389.542Z" fill="white"/>
<path d="M455.129 78.1122C410.781 72.558 363.874 89.5522 330.236 122.185C334.624 79.2184 321.45 34.8914 293.698 2.25978C292.517 0.87107 290.801 0.0500798 288.978 0.0022163C287.155 -0.0456472 285.398 0.68361 284.145 2.0085C246.578 41.7306 228.232 76.2681 220.574 123.862C197.206 90.2562 156.148 73.3365 114.46 60.2391C111.199 59.2154 107.706 60.9279 106.518 64.1281C96.7228 90.5009 95.7608 119.872 103.809 146.828C109.034 164.332 117.995 180.603 129.838 194.431C85.9595 185.711 35.161 198.37 2.09922 228.46C-0.474772 230.804 -0.712762 234.764 1.55743 237.398C31.4881 272.134 73.9138 296.516 118.134 305.08C75.5345 329.148 42.2753 372.455 30.8559 420.42C30.4431 422.151 30.7681 423.976 31.754 425.459C32.7385 426.941 34.2954 427.947 36.0511 428.239C85.0806 436.359 135.398 425.325 173.565 398.607C171.7 441.494 178.121 512.616 214.214 548.155C215.492 549.414 217.238 550.079 219.029 549.992C220.82 549.905 222.494 549.072 223.644 547.696C251.747 514.049 273.075 473.032 284.626 430.789C311.768 473.367 354.968 508.785 402.903 527.173C404.773 527.891 406.872 527.692 408.577 526.639C410.283 525.584 411.397 523.794 411.59 521.8C416.025 476.112 409.52 430.704 392.245 386.518C429.487 408.958 475.524 414.796 519.515 401.881C521.041 401.434 522.337 400.437 523.164 399.1C523.303 398.878 523.428 398.645 523.538 398.403C524.314 396.717 524.32 394.776 523.558 393.084C504.839 351.568 472.202 317.457 431.951 296.557C473.197 290.255 512.936 266.433 540.039 230.635C542.065 227.941 541.68 224.121 539.122 221.907C502.707 190.38 450.199 176.743 401.596 184.658C423.663 164.068 441.883 140.444 454.999 115.24C459.846 105.928 464.83 93.7523 460.312 82.152C459.457 79.9556 457.467 78.4054 455.129 78.1122ZM288.465 16.222C315.072 51.1072 324.781 98.4914 313.787 141.68C313.491 142.841 313.543 144.017 313.869 145.102C311.37 144.228 308.857 143.435 306.331 142.711C312.016 109.159 304.153 72.0156 284.537 40.3944C284.166 39.7961 283.526 39.4192 282.822 39.3859C282.119 39.3514 281.444 39.6645 281.018 40.2242C257.488 71.0616 248.679 102.368 243.095 139.564C239.065 140.293 235.074 141.213 231.124 142.291C236.477 90.9981 252.304 55.95 288.465 16.222ZM377.358 331.435C375.388 324.611 368.445 316.634 354.306 307.883C331.578 293.819 303.652 297.769 303.652 297.769C303.652 297.769 312.576 324.524 335.304 338.588C349.594 347.431 359.898 350.047 366.887 348.667C329.64 400.06 258.253 414.801 203.437 380.879C202.3 380.176 201.206 379.43 200.101 378.696C208.575 383.856 220.611 379.658 234.624 357.013C248.689 334.285 244.738 306.36 244.738 306.36C244.738 306.36 217.984 315.284 203.919 338.012C189.974 360.548 191.509 373.173 199.802 378.5C148.848 344.44 131.282 277.896 157.662 223.478C159.689 230.268 166.624 238.194 180.664 246.882C203.391 260.946 231.317 256.996 231.317 256.996C231.317 256.996 222.393 230.241 199.665 216.177C185.262 207.263 174.914 204.684 167.922 206.139C204.915 153.752 277.011 138.515 332.262 172.706C386.453 206.243 405.318 275.497 377.358 331.435ZM480.735 380.957C447.289 378.521 414.45 368.593 385.236 352.13C385.65 351.486 386.087 350.866 386.491 350.212C393.815 338.377 399.122 325.859 402.561 313.06C434.476 326.134 462.625 350.55 480.735 380.957ZM360.224 381.342C370.335 420.582 376.598 452.664 380.179 483.571C352.917 462.107 327.973 437.697 305.863 410.959C325.721 405.343 344.367 395.337 360.224 381.342ZM164.853 370.87C137.269 386.501 106.298 396.233 74.7302 399.158C90.6275 370.653 112.509 346.431 138.397 328.653C144.528 344.016 153.424 358.348 164.853 370.87ZM251.367 415.299C246.822 443.728 237.226 471.289 221.467 501.169C209.789 469.589 204.459 435.445 205.925 401.801C220.509 409.038 235.875 413.479 251.367 415.299ZM128.449 272.879C103.794 266.667 72.9439 254.6 56.0155 237.952C77.0223 228.068 110.217 227.012 136.042 231.116C131.312 244.758 128.82 258.839 128.449 272.879ZM160.739 187.417C144.506 165.511 133.703 131.788 133.25 101.378C164.472 113.006 186.73 129.034 204.322 152.613C187.91 160.975 173.021 172.678 160.739 187.417ZM247.53 138.849C252.872 103.914 261.232 74.2918 282.531 45.3396C300.326 75.3474 307.402 110.086 302.186 141.562C284.127 136.988 265.546 136.181 247.53 138.849ZM393.117 215.524C428.142 209.375 466.388 215.042 499.627 231.405C472.627 252.165 440.836 265.665 407.18 270.71C406.316 251.576 401.516 232.767 393.117 215.524ZM335.737 154.919C363.999 128.649 392.29 112.844 426.38 104.337C410.349 139.653 392.677 163.694 369.729 181.493C361.495 172.685 352.002 164.793 341.268 158.151C339.442 157.021 337.594 155.955 335.737 154.919ZM116.11 143.154C109.438 120.809 109.634 96.6228 116.574 74.3888C159.883 88.4481 201.33 107.373 218.549 146.365C215.067 147.677 211.638 149.131 208.263 150.72C189.541 125.338 165.708 108.423 131.82 96.3003C131.167 96.067 130.443 96.164 129.874 96.5603C129.308 96.9578 128.967 97.6033 128.96 98.2973C128.692 131.259 140.037 167.242 157.962 190.843C155.974 193.39 154.069 196.028 152.238 198.743C135.234 184.125 122.535 164.678 116.11 143.154ZM15.5681 233.818C49.982 206.044 103.742 196.972 144.427 211.809C141.804 216.786 139.504 221.856 137.536 227.002C110.493 222.545 74.2183 223.327 51.4399 235.459C50.8542 235.772 50.4454 236.338 50.3357 236.991C50.2253 237.645 50.4248 238.313 50.8755 238.8C68.1137 257.414 101.976 270.732 128.395 277.275C128.424 282.851 128.783 288.408 129.471 293.92C86.9613 287.939 45.4237 266.112 15.5681 233.818ZM45.1379 416.593C57.9633 372.282 91.9524 331.861 132.912 311.852C134.025 316.141 135.34 320.374 136.855 324.543C108.973 343.471 85.5852 369.672 69.0617 400.613C68.6941 401.303 68.7299 402.136 69.1561 402.79C69.5822 403.443 70.33 403.814 71.1085 403.754C105.003 401.226 138.349 390.97 167.847 374.078C170.22 376.517 172.708 378.867 175.281 381.148C140.709 409.545 92.683 422.582 45.1379 416.593ZM218.396 533.804C182.885 491.96 185.614 411.23 186.976 390.447C189.399 392.169 191.867 393.849 194.43 395.435C196.842 396.927 199.29 398.312 201.755 399.64C199.883 436.072 205.858 473.148 219.146 507.101C219.45 507.876 220.175 508.405 221.006 508.457C221.796 508.506 222.545 508.116 222.958 507.447C222.979 507.413 223 507.378 223.02 507.342C240.382 475.331 250.826 446.039 255.638 415.726C262.119 416.285 268.607 416.394 275.06 416.051C265.44 458.147 245.507 499.581 218.396 533.804ZM399.514 511.937C353.838 492.293 313.543 456.497 289.856 414.465C293.698 413.848 297.512 413.085 301.288 412.153C324.981 441.045 351.963 467.264 381.562 490.072C382.24 490.595 383.165 490.663 383.913 490.245C384.236 490.064 384.5 489.806 384.687 489.504C384.932 489.108 385.047 488.633 384.996 488.151C381.438 454.892 374.857 420.678 363.8 378.082C366.395 375.625 368.89 373.036 371.312 370.356C371.353 370.456 371.365 370.562 371.411 370.66C393.21 416.625 402.649 464.108 399.514 511.937ZM508.599 391.516C463.062 402.521 415.98 392.094 381.339 362.994C380.524 362.31 379.579 361.872 378.595 361.654C380.072 359.724 381.502 357.742 382.89 355.716C413.891 373.235 448.912 383.527 484.473 385.485C485.256 385.528 486.006 385.098 486.411 384.475C486.821 383.813 486.839 382.98 486.456 382.301C467.885 349.285 437.832 322.734 403.603 308.872C404.384 305.556 405.067 302.228 405.598 298.886C450.252 315.707 487.336 349.073 508.599 391.516ZM526.004 227.713C495.812 264.612 450.924 286.432 407.078 285.333C407.283 281.889 407.332 278.448 407.282 275.012C442.981 269.757 476.646 255.199 504.932 232.688C505.128 232.531 505.291 232.346 505.42 232.139C505.663 231.746 505.775 231.278 505.729 230.805C505.66 230.082 505.227 229.445 504.583 229.112C469.442 210.963 428.444 204.694 391.109 211.558C389.311 208.149 387.397 204.794 385.313 201.53C432.91 187.409 487.839 197.591 526.004 227.713ZM443.613 109.313C428.065 139.17 404.925 166.727 376.512 189.313C375.244 187.735 373.948 186.175 372.606 184.648C388.156 172.534 401.345 157.677 413.201 138.517C419.832 127.802 426.058 115.749 432.064 102.108C432.39 101.369 432.271 100.507 431.755 99.8835C431.239 99.2599 430.417 98.9807 429.628 99.1609C392.94 107.565 361.748 124.667 331.741 152.805C328.948 151.363 326.132 150.003 323.284 148.767C323.966 148.362 324.586 147.837 325.094 147.177C354.549 108.907 403.914 86.4677 449.171 90.3885C449.728 96.5097 446.604 103.566 443.613 109.313Z" fill="white"/>
<path d="M131.191 478.81C138.86 478.253 144.626 471.585 144.069 463.916C143.513 456.247 136.844 450.481 129.175 451.037C121.506 451.594 115.74 458.262 116.297 465.932C116.854 473.601 123.522 479.366 131.191 478.81Z" fill="white"/>
<path d="M47.6918 330.768C55.0303 328.473 59.1187 320.663 56.8235 313.325C54.5283 305.986 46.7187 301.898 39.3802 304.193C32.0418 306.489 27.9534 314.298 30.2486 321.637C32.5438 328.975 40.3534 333.063 47.6918 330.768Z" fill="white"/>
<path d="M77.391 169.216C83.736 164.872 85.3585 156.207 81.0149 149.862C76.6714 143.517 68.0066 141.895 61.6615 146.238C55.3165 150.582 53.694 159.247 58.0376 165.592C62.3811 171.937 71.0459 173.559 77.391 169.216Z" fill="white"/>
<path d="M204.482 68.0268C211.781 65.6108 215.74 57.7351 213.324 50.4359C210.908 43.1367 203.032 39.178 195.733 41.5939C188.434 44.0098 184.475 51.8855 186.891 59.1847C189.307 66.4839 197.183 70.4427 204.482 68.0268Z" fill="white"/>
<path d="M374.13 70.6322C378.219 64.1203 376.255 55.5266 369.743 51.4375C363.231 47.3485 354.637 49.3126 350.548 55.8244C346.459 62.3363 348.423 70.9301 354.935 75.0191C361.447 79.1082 370.041 77.1441 374.13 70.6322Z" fill="white"/>
<path d="M482.186 164.632C486.608 158.342 485.093 149.658 478.803 145.236C472.512 140.814 463.828 142.329 459.406 148.619C454.984 154.909 456.499 163.594 462.789 168.016C469.08 172.437 477.764 170.923 482.186 164.632Z" fill="white"/>
<path d="M509.876 314.865C513.334 307.997 510.569 299.626 503.701 296.168C496.833 292.711 488.463 295.475 485.005 302.343C481.547 309.211 484.312 317.581 491.18 321.039C498.047 324.497 506.418 321.733 509.876 314.865Z" fill="white"/>
<path d="M443.176 443.172C450.467 440.729 454.397 432.839 451.954 425.548C449.511 418.257 441.621 414.327 434.33 416.77C427.039 419.213 423.109 427.103 425.552 434.394C427.995 441.685 435.885 445.615 443.176 443.172Z" fill="white"/>
<path d="M313.204 501.611C313.381 493.924 307.293 487.549 299.606 487.373C291.92 487.196 285.545 493.284 285.368 500.971C285.191 508.657 291.279 515.032 298.966 515.209C306.653 515.386 313.028 509.298 313.204 501.611Z" fill="white"/>
<path d="M301.744 528.697C437.842 528.697 548.171 517.099 548.171 502.792C548.171 488.485 437.842 476.887 301.744 476.887C165.646 476.887 55.3164 488.485 55.3164 502.792C55.3164 517.099 165.646 528.697 301.744 528.697Z" fill="#CEBCA7"/>
<path d="M421.505 437.956C423.851 440.51 426.41 443.14 429.071 445.683C430.556 447.128 432.081 448.551 433.604 449.889C438.653 454.351 443.656 458.119 447.539 460.05C452.024 462.255 456.643 464.117 461.361 465.766C464.073 466.725 466.824 467.62 469.595 468.472C469.957 468.585 470.32 468.7 470.682 468.792C472.303 469.305 473.943 469.796 475.562 470.266C476.329 470.492 477.117 470.717 477.905 470.943C477.905 470.943 477.905 470.943 477.927 470.942C478.609 471.15 479.311 471.336 479.993 471.544C486.809 473.499 494.362 475.406 500.827 472.776C501.223 472.636 501.597 472.454 501.969 472.272C507.502 469.506 510.697 463.764 512.958 457.886C513.016 457.736 513.074 457.587 513.132 457.437C513.383 456.774 513.634 456.112 513.864 455.451C517.848 443.967 520.359 431.965 521.326 419.849C521.37 419.299 521.33 418.752 521.207 418.25C520.715 416.243 519.016 414.679 516.856 414.417C495.084 411.721 472.561 394.144 460.546 374.996C460.525 375.018 460.505 375.039 460.506 375.061C447.205 390.856 433.016 405.986 425.458 424.997C423.772 429.231 422.469 433.557 421.505 437.956Z" fill="#BF724B"/>
<path d="M421.505 437.956C429.553 446.783 440.415 456.504 447.539 460.05C452.024 462.254 456.643 464.117 461.361 465.765C445.147 450.954 435.335 448.376 437.775 428.934C438.502 423.194 462.336 381.597 461.52 377.555C461.317 376.572 460.972 375.74 460.505 375.061C447.204 390.856 433.015 405.986 425.458 424.997C423.772 429.231 422.469 433.557 421.505 437.956Z" fill="#A55130"/>
<path d="M428.678 435.523C430.007 434.274 431.736 433.618 433.566 433.677C435.165 433.728 436.644 434.35 437.83 435.394C438.159 434.196 438.792 433.1 439.722 432.23C442.467 429.655 446.794 429.792 449.371 432.537C449.766 432.958 450.075 433.425 450.343 433.91C450.438 433.809 450.514 433.695 450.617 433.599C451.945 432.35 453.678 431.694 455.505 431.753C457.327 431.811 459.018 432.576 460.266 433.905C461.229 434.932 461.811 436.18 462.02 437.476C463.088 436.874 464.293 436.552 465.559 436.595C467.381 436.653 469.073 437.417 470.32 438.747C471.969 440.506 472.492 442.911 471.943 445.091C472.186 445.073 472.426 445.036 472.674 445.044C474.496 445.101 476.188 445.866 477.435 447.195C480.009 449.941 479.871 454.268 477.127 456.845C476.823 457.129 476.499 457.378 476.161 457.596C477.965 457.646 479.646 458.405 480.888 459.745C482.137 461.072 482.788 462.8 482.724 464.615C482.662 466.452 481.899 468.144 480.572 469.393C479.796 470.116 478.886 470.633 477.927 470.94C477.905 470.941 477.905 470.941 477.905 470.941C477.117 470.716 476.329 470.49 475.562 470.264C473.943 469.793 472.302 469.302 470.682 468.79C470.32 468.697 469.958 468.583 469.595 468.469C466.824 467.618 464.073 466.723 461.361 465.764C456.643 464.116 452.024 462.253 447.539 460.048C443.655 458.118 438.653 454.35 433.604 449.887C432.258 448.704 430.915 447.452 429.596 446.181C429.156 445.89 428.738 445.563 428.369 445.169C425.795 442.425 425.934 438.098 428.678 435.523ZM447.833 433.979C446.865 432.946 445.538 432.449 444.224 432.495C443.122 432.534 442.028 432.955 441.164 433.768C440.244 434.629 439.716 435.798 439.676 437.058C439.654 437.726 439.781 438.373 440.024 438.974C442.798 438.075 445.677 437.626 448.559 437.631C448.633 437.098 448.76 436.582 448.953 436.09C448.767 435.325 448.409 434.593 447.833 433.979ZM458.728 435.348C457.866 434.428 456.697 433.901 455.437 433.861C455.328 433.856 455.221 433.856 455.114 433.859C453.973 433.899 452.898 434.347 452.058 435.136C451.678 435.491 451.382 435.91 451.143 436.355C451.201 436.822 451.206 437.289 451.168 437.756C454.03 438.032 456.853 438.734 459.527 439.898C459.652 439.691 459.778 439.488 459.927 439.293C460.14 437.91 459.759 436.447 458.728 435.348ZM468.783 440.189C467.921 439.27 466.751 438.743 465.491 438.702C465.383 438.698 465.276 438.698 465.169 438.701C464.028 438.741 462.953 439.188 462.112 439.975C462.03 440.052 461.971 440.144 461.895 440.225C461.834 440.472 461.743 440.712 461.655 440.951C464.167 442.315 466.515 444.08 468.581 446.275C468.839 446.094 469.11 445.94 469.388 445.799C470.421 444.042 470.246 441.75 468.783 440.189ZM475.898 448.639C475.036 447.719 473.866 447.192 472.607 447.152C472.498 447.147 472.391 447.147 472.284 447.15C471.783 447.167 471.3 447.277 470.838 447.446C470.65 447.703 470.431 447.941 470.203 448.175C472.116 450.61 473.56 453.279 474.528 456.081C474.939 455.881 475.334 455.638 475.684 455.309C477.581 453.528 477.677 450.537 475.898 448.639ZM479.125 467.842C480.045 466.988 480.573 465.809 480.613 464.564C480.653 463.298 480.21 462.09 479.335 461.172C478.48 460.253 477.323 459.724 476.057 459.684L475.741 459.695C475.657 459.698 475.572 459.701 475.51 459.724C476.146 462.823 476.215 466.004 475.734 469.121C476.936 469.163 478.166 468.741 479.125 467.842ZM429.906 443.729C430.111 443.947 430.335 444.139 430.572 444.312C432.846 442.346 435.352 440.816 437.998 439.721C437.85 438.832 437.451 437.976 436.79 437.271C435.928 436.352 434.758 435.824 433.499 435.784C433.39 435.779 433.283 435.779 433.176 435.783C432.035 435.822 430.96 436.27 430.12 437.057C428.222 438.839 428.127 441.831 429.906 443.729Z" fill="#F4C540"/>
<path d="M433.604 449.889C438.653 454.351 443.656 458.119 447.539 460.05C452.024 462.254 456.643 464.117 461.361 465.766C464.073 466.725 466.824 467.62 469.595 468.471C470.598 462.195 468.783 455.532 464.096 450.53C456.036 441.934 442.525 441.501 433.93 449.561C433.829 449.67 433.706 449.78 433.604 449.889Z" fill="#DD740B"/>
<path d="M509.796 450.68C510.389 453.147 511.627 455.402 513.133 457.437C513.384 456.774 513.635 456.112 513.865 455.451C517.849 443.967 520.36 431.965 521.327 419.849C521.371 419.299 521.331 418.752 521.208 418.25C517.256 419.211 513.801 422.305 512.588 426.206C511.126 430.833 512.921 436.316 516.817 439.195C514.121 438.678 512.39 440.446 510.911 442.754C509.431 445.062 509.175 448.003 509.796 450.68Z" fill="white"/>
<path d="M500.623 472.34C500.67 472.487 500.738 472.632 500.828 472.776C501.223 472.636 501.597 472.453 501.97 472.272C507.502 469.506 510.697 463.763 512.958 457.886C509.913 457.634 506.278 458.604 504.269 460.846C502.137 463.198 501.003 466.337 500.544 469.496C500.409 470.429 500.317 471.423 500.623 472.34Z" fill="white"/>
<path d="M559.244 370.525C562.195 373.727 563.84 377.888 565.394 381.957C566.354 384.474 567.326 387.031 568.604 389.392C569.423 390.905 568.037 392.669 566.376 392.221C563.248 391.376 560.169 390.38 557.261 388.963C552.807 386.791 548.731 383.52 546.491 379.1C544.849 375.861 543.061 368.175 547.41 366.188C551.158 364.477 556.847 367.924 559.244 370.525Z" fill="#1C1413"/>
<path d="M176.954 284.594C177.08 287.605 177.271 290.635 177.544 293.64C178.049 297.819 178.512 301.999 178.806 306.185C181.728 330.037 187.031 353.805 189.916 377.805C190.718 384.44 191.331 391.103 191.671 397.797C192.042 405.396 192.284 413.527 192.515 421.911C192.552 422.964 192.568 424.039 192.606 425.114C192.659 427.22 192.711 429.327 192.765 431.455L192.803 432.529C193.1 443.421 193.427 454.585 193.98 465.551C193.989 465.825 194.021 466.098 194.031 466.393C194.056 467.109 194.101 467.803 194.126 468.519C194.156 468.75 194.164 468.982 194.172 469.213L194.172 469.234C194.231 470.307 194.311 471.38 194.368 472.432C194.374 472.601 194.38 472.769 194.406 472.916C194.472 474.2 194.559 475.462 194.645 476.724C194.725 477.797 194.804 478.848 194.862 479.922C195.535 488.902 196.451 497.6 197.705 505.716C197.819 506.577 197.954 507.416 198.089 508.255C198.547 511.085 200.63 513.374 203.418 514.099C224.29 519.419 244.823 520.472 265.148 514.405C268.403 513.405 270.62 510.502 270.927 507.223C271.007 506.482 270.959 505.703 270.827 504.949C264.816 471.759 258.51 439.802 255.45 406.023C255.353 405.056 255.277 404.089 255.18 403.122C284.837 421.483 322.337 420.508 353.027 403.935C351.383 412.385 350.229 420.987 349.626 429.653C349.57 430.456 349.513 431.239 349.478 432.041C349.369 433.753 349.302 435.442 349.257 437.152C349.204 438.061 349.194 438.989 349.184 439.895C349.149 440.698 349.156 441.478 349.141 442.28C349.133 442.639 349.145 442.997 349.136 443.356C349.121 457.358 350.58 471.35 353.774 484.881C353.854 485.342 353.953 485.781 354.096 486.24L354.096 486.261C354.446 487.81 354.858 489.355 355.291 490.879C355.559 491.903 355.847 492.926 356.157 493.928C358.169 500.816 360.66 507.54 363.651 514.056C363.744 514.285 363.858 514.534 363.971 514.762C378.002 517.434 391.118 516.806 403.655 512.951C405.909 512.261 408.158 511.465 410.383 510.565L410.736 510.426C415.995 508.259 421.171 505.527 426.263 502.186C425.882 500.955 425.502 499.724 425.163 498.492C419.498 478.806 417.135 457.697 421.505 437.954C422.468 433.556 423.772 429.23 425.458 424.995C433.017 405.985 447.205 390.855 460.506 375.059C460.505 375.038 460.526 375.016 460.546 374.995C466.032 368.476 471.366 361.837 475.99 354.78C482.677 344.593 487.832 333.448 491.431 321.809C504.258 341.265 522.092 357.405 542.735 368.216C543.916 368.828 545.16 369.438 546.487 369.371C547.813 369.303 549.19 368.285 549.143 366.958C549.13 365.989 548.428 365.212 547.75 364.498C523.167 338.705 504.455 303.534 496.989 268.561C496.677 265.071 496.24 261.607 495.655 258.17C494.946 254.167 494.09 250.19 493.046 246.284C492.247 243.339 491.365 240.418 490.357 237.522C483.38 217.123 471.466 198.456 456.151 183.199C454.84 181.895 453.487 180.593 452.114 179.334C443.898 171.735 434.789 165.096 425.004 159.66C422.811 158.43 420.576 157.264 418.303 156.184C415.406 154.746 412.451 153.437 409.457 152.234C387.251 143.164 362.816 139.633 338.896 141.821C334.776 142.197 330.683 142.741 326.617 143.453C326.759 143.891 326.902 144.349 327.024 144.809C333.816 170.17 347.037 193.682 357.517 217.754C362.012 228.098 366.073 241.114 358.804 249.697C354.085 255.261 346.872 256.42 339.286 256.559C334.819 256.673 330.214 256.413 325.915 256.5C308.385 256.881 292.071 264.896 275.439 270.476C258.808 276.076 239.532 279.008 224.478 270.004C220.105 267.373 216.078 263.761 211.054 263.009C202.151 261.676 194.919 269.521 188.584 275.899C185.508 278.98 182.071 281.989 178.239 283.957C177.826 284.185 177.391 284.411 176.954 284.594Z" fill="#BF724B"/>
<path d="M349.14 442.281C349.154 441.48 349.148 440.7 349.183 439.897C349.194 438.99 349.203 438.062 349.256 437.153C351.581 437.325 353.833 437.794 355.967 438.521C355.987 438.478 356.007 438.456 356.027 438.413C356.146 438.219 356.244 438.005 356.3 437.813C356.321 437.791 356.34 437.748 356.34 437.727C356.572 437.15 356.677 436.535 356.655 435.902C356.564 433.291 354.363 431.26 351.773 431.35C350.93 431.379 350.137 431.618 349.477 432.042C349.512 431.24 349.569 430.457 349.625 429.654C350.27 429.4 350.962 429.27 351.699 429.244C355.216 429.121 358.237 431.693 358.695 435.135C359.705 434.467 360.893 434.067 362.178 434.022C365.926 433.891 369.109 436.858 369.24 440.607C369.26 441.175 369.217 441.746 369.067 442.279C369.192 442.254 369.34 442.248 369.466 442.244C373.236 442.112 376.396 445.059 376.528 448.808C376.578 450.24 376.202 451.54 375.503 452.661C378.498 453.273 380.803 455.891 380.915 459.071C380.999 461.472 379.83 463.621 377.999 464.908C379.58 466.118 380.636 467.979 380.711 470.127C380.834 473.644 378.262 476.644 374.842 477.122C375.466 478.091 375.843 479.238 375.888 480.502C376.02 484.272 373.073 487.432 369.303 487.564C368.566 487.59 367.845 487.489 367.163 487.281C367.24 487.658 367.295 488.036 367.309 488.436C367.441 492.206 364.473 495.367 360.724 495.498C358.976 495.56 357.396 494.983 356.157 493.93C355.848 492.928 355.558 491.905 355.291 490.881C354.858 489.357 354.446 487.811 354.097 486.263L354.096 486.242C353.954 485.783 353.854 485.343 353.774 484.882C350.581 471.351 349.121 457.359 349.137 443.357C349.144 442.998 349.132 442.64 349.14 442.281ZM367.134 440.681C367.044 438.091 364.842 436.039 362.251 436.129C360.567 436.188 359.102 437.125 358.328 438.502C358.19 438.76 358.072 439.017 357.954 439.273C357.955 439.295 357.955 439.295 357.955 439.295C360.63 440.424 363.11 441.982 365.265 443.91C365.674 443.537 366.148 443.225 366.645 442.976L366.644 442.954C366.979 442.268 367.163 441.503 367.134 440.681ZM369.54 444.351C369.035 444.369 368.532 444.471 368.074 444.634C367.814 445.044 367.51 445.413 367.163 445.742C369.155 447.822 370.799 450.212 372.03 452.846C372.259 452.754 372.51 452.682 372.761 452.652C373.826 451.75 374.475 450.399 374.422 448.883C374.331 446.291 372.151 444.259 369.54 444.351ZM378.809 459.145C378.719 456.554 376.538 454.522 373.927 454.614C373.822 454.617 373.737 454.62 373.633 454.645C373.427 454.779 373.2 454.913 372.972 455.048C373.973 457.712 374.558 460.601 374.663 463.591C375.002 463.622 375.32 463.674 375.619 463.769C377.535 463.133 378.883 461.272 378.809 459.145ZM378.605 470.201C378.537 468.243 377.299 466.62 375.568 465.964C375.254 466.038 374.94 466.092 374.624 466.102C374.48 469.207 373.782 472.162 372.656 474.922L372.678 474.942C373.124 475.053 373.568 475.101 374.053 475.083C376.664 474.993 378.696 472.792 378.605 470.201ZM369.229 485.459C371.84 485.367 373.872 483.167 373.781 480.576C373.728 479.06 372.943 477.717 371.776 476.893C370.358 479.747 368.465 482.301 366.179 484.469C367.003 485.136 368.071 485.5 369.229 485.459ZM360.65 493.392C363.241 493.302 365.293 491.1 365.202 488.51C365.17 487.583 364.866 486.729 364.399 486.029C361.979 487.991 359.209 489.563 356.187 490.596C356.943 492.299 358.67 493.462 360.65 493.392Z" fill="#F4C540"/>
<path d="M353.774 484.882C354.253 484.718 354.733 484.554 355.19 484.369L355.211 484.368C356.791 483.723 358.259 482.891 359.617 481.915C360.584 481.228 361.505 480.436 362.339 479.564C363.764 478.122 364.993 476.477 365.963 474.651C366.458 473.748 366.889 472.805 367.234 471.823C367.869 470.071 368.267 468.202 368.411 466.278C368.488 465.474 368.502 464.672 368.473 463.851C368.465 463.598 368.455 463.345 368.426 463.114C368.3 461.305 367.965 459.567 367.422 457.92C367.068 456.857 366.653 455.838 366.134 454.865C366.133 454.844 366.112 454.844 366.112 454.844C365.296 453.207 364.252 451.704 363.045 450.355C359.534 446.45 354.614 443.839 349.136 443.356C349.121 457.359 350.58 471.351 353.774 484.882Z" fill="#DD740B"/>
<path d="M363.65 514.058C363.743 514.286 363.857 514.536 363.97 514.764C378.001 517.435 391.117 516.808 403.654 512.953L410.382 510.566L410.735 510.427C415.994 508.261 421.17 505.529 426.262 502.187C425.881 500.956 425.501 499.726 425.162 498.493C422.265 496.444 418.422 495.672 414.998 496.657C410.321 498.001 406.726 502.513 406.474 507.351C396.706 496.981 385.505 507.093 386.869 514.742C385.481 511.86 380.015 508.699 376.856 508.219C373.698 507.76 366.89 509.032 365.084 511.646C364.523 512.466 364.045 513.284 363.65 514.058Z" fill="white"/>
<path d="M195.278 420.108C197.008 419.52 198.867 419.624 200.498 420.431C202.149 421.238 203.378 422.608 203.966 424.337C204.483 425.859 204.455 427.462 203.895 428.937C205.134 428.788 206.366 429.019 207.502 429.57C209.154 430.377 210.383 431.768 210.972 433.497C211.58 435.205 211.455 437.065 210.669 438.695C210.413 439.21 210.113 439.684 209.748 440.098C209.875 440.136 209.983 440.195 210.111 440.254C213.5 441.885 214.909 445.99 213.256 449.38C212.646 450.603 211.711 451.606 210.554 452.279C211.487 453.048 212.219 454.077 212.62 455.285C213.228 456.993 213.103 458.853 212.317 460.483C211.509 462.135 210.119 463.364 208.389 463.952C207.931 464.116 207.472 464.238 206.988 464.276C207.831 466.08 207.885 468.23 206.94 470.139C206.154 471.791 204.763 473.02 203.034 473.608C202.388 473.841 201.718 473.97 201.044 473.994C199.949 474.032 198.844 473.797 197.815 473.306C197.45 473.129 197.105 472.909 196.78 472.668C197.366 474.355 197.263 476.214 196.455 477.845C196.062 478.66 195.518 479.374 194.862 479.925C194.804 478.851 194.725 477.8 194.645 476.727C195.133 475.635 195.176 474.431 194.779 473.306C194.709 473.14 194.662 472.973 194.551 472.829C194.51 472.852 194.469 472.874 194.407 472.918C194.381 472.772 194.375 472.603 194.369 472.435C194.311 471.383 194.231 470.31 194.173 469.237L194.172 469.216C194.164 468.984 194.156 468.753 194.127 468.522C193.976 467.81 193.95 467.094 194.031 466.395C194.021 466.101 193.99 465.828 193.981 465.554C193.428 454.587 193.101 443.423 192.803 432.532L192.766 431.458C192.712 429.33 192.659 427.223 192.607 425.116C192.569 424.042 192.553 422.967 192.516 421.914C193.267 421.106 194.215 420.482 195.278 420.108ZM208.759 437.791C209.31 436.654 209.392 435.365 208.991 434.177C208.571 432.99 207.714 432.029 206.599 431.478C205.89 431.123 205.126 430.96 204.367 430.986C203.904 431.002 203.444 431.103 202.984 431.246C202.651 431.363 202.34 431.522 202.05 431.679C201.824 431.835 201.598 432.011 201.394 432.187C201.373 432.209 201.353 432.231 201.333 432.252C203.183 434.528 204.621 437.05 205.644 439.755C206.166 439.61 206.691 439.55 207.219 439.574C207.879 439.129 208.405 438.52 208.759 437.791ZM211.368 448.454C212.509 446.115 211.524 443.282 209.186 442.141C208.715 441.926 208.224 441.774 207.738 441.728C207.427 441.908 207.095 442.046 206.74 442.164C206.636 442.188 206.554 442.234 206.448 442.238C207.219 444.994 207.553 447.892 207.422 450.786C207.676 450.819 207.911 450.896 208.146 450.971C208.313 450.944 208.501 450.896 208.668 450.848C209.856 450.426 210.817 449.591 211.368 448.454ZM207.708 461.972C208.895 461.551 209.856 460.695 210.407 459.579C210.958 458.442 211.04 457.153 210.639 455.965C210.219 454.778 209.384 453.816 208.247 453.266C208.161 453.226 208.053 453.167 207.968 453.149C207.759 453.198 207.569 453.204 207.359 453.212L207.19 453.218C206.825 456.035 205.996 458.848 204.677 461.529C204.958 461.709 205.218 461.932 205.437 462.156C206.179 462.279 206.979 462.229 207.708 461.972ZM198.739 471.395C201.077 472.537 203.911 471.573 205.052 469.235C205.897 467.476 205.574 465.463 204.365 464.071C204.047 463.998 203.748 463.903 203.447 463.745C201.874 466.393 199.888 468.698 197.614 470.612C197.943 470.938 198.331 471.198 198.739 471.395ZM199.926 430.615C199.947 430.614 199.968 430.613 199.988 430.592C200.193 430.415 200.418 430.239 200.646 430.105C201.095 429.689 201.479 429.211 201.754 428.632C202.304 427.495 202.387 426.227 201.965 425.019C201.564 423.831 200.709 422.87 199.572 422.319C198.885 421.985 198.12 421.822 197.362 421.848C196.898 421.864 196.416 421.945 195.979 422.108C194.791 422.508 193.83 423.363 193.279 424.5C193.141 424.758 193.045 425.035 192.97 425.313C195.635 426.717 197.955 428.533 199.926 430.615Z" fill="#F4C540"/>
<path d="M192.803 432.53C193.1 443.421 193.427 454.586 193.98 465.552C194.082 465.464 194.164 465.377 194.266 465.288C195.615 464.061 196.829 462.626 197.849 461.03C198.31 460.339 198.706 459.608 199.08 458.857C199.198 458.621 199.316 458.363 199.413 458.128C200.136 456.5 200.648 454.837 200.926 453.141C201.12 452.059 201.229 450.959 201.233 449.862L201.232 449.84C201.273 447.983 201.061 446.156 200.619 444.379C199.465 439.74 196.765 435.512 192.803 432.53Z" fill="#DD740B"/>
<path d="M197.705 505.717C197.819 506.577 197.954 507.416 198.089 508.255C198.547 511.086 200.63 513.375 203.418 514.099C224.29 519.42 244.823 520.473 265.148 514.406C268.403 513.406 270.621 510.503 270.928 507.224C266.386 501.562 256.92 501.009 251.502 506.491C248.61 509.397 246.846 513.212 245.527 517.096C244.479 510.659 238.497 505.407 231.973 505.193C225.471 504.977 219.147 509.838 217.681 516.173C217.24 511.402 214.028 506.98 209.618 505.09C205.829 503.472 201.304 503.736 197.705 505.717Z" fill="white"/>
<path d="M176.102 284.941C176.393 284.846 176.685 284.731 176.954 284.595C177.39 284.41 177.825 284.184 178.239 283.959C182.071 281.991 185.508 278.981 188.584 275.901C194.919 269.521 202.151 261.677 211.054 263.011C216.078 263.763 220.105 267.375 224.478 270.005C239.532 279.01 258.808 276.078 275.438 270.477C292.07 264.898 308.384 256.883 325.915 256.501C330.214 256.414 334.82 256.675 339.286 256.56C337.78 253.302 336.253 250.046 334.726 246.788C330.162 247.728 325.403 247.895 320.767 248.584C305.704 250.799 292.006 258.258 278.001 264.189C263.976 270.12 248.34 274.632 233.649 270.612C221.727 267.361 211.334 256.57 210.121 244.825C206.791 260.524 192.766 272.508 176.796 278.317C176.803 279.708 176.832 281.141 176.881 282.552C176.658 283.361 176.39 284.15 176.102 284.941Z" fill="#A55130"/>
<path d="M176.883 282.552L176.89 282.763L177.901 282.137L177.536 280.125C177.354 280.954 177.129 281.763 176.883 282.552Z" fill="#BF724B"/>
<path d="M63.9259 426.75V426.766C64.1147 431.728 69.046 434.123 75.9297 435.241C77.3629 435.478 78.86 435.667 80.4348 435.808C87.0041 436.391 94.6283 436.25 101.497 436.25C101.686 436.25 101.906 436.266 102.096 436.25C102.742 436.25 103.356 436.266 103.986 436.266H104.27C104.538 436.281 104.806 436.265 105.136 436.281C112.052 436.313 126.482 436.203 130.042 431.052C130.341 430.61 130.578 430.106 130.704 429.587C132.578 421.773 134.169 408.115 137.414 401.53C142.377 391.51 151.892 384.138 162.446 380.499C171.221 377.474 180.673 376.844 189.92 377.806C187.037 353.813 181.728 330.042 178.798 306.191C178.514 302 178.043 297.826 177.538 293.635C177.27 290.643 177.081 287.602 176.955 284.593C176.687 284.735 176.388 284.845 176.104 284.94C170.433 300.772 156.066 312.571 141.4 321.377C133.901 325.867 126.04 329.979 118.478 334.452C118.037 334.688 117.612 334.956 117.171 335.224C116.588 335.571 116.037 335.902 115.454 336.264C114.24 337.004 113.028 337.76 111.831 338.532C105.608 342.549 99.7318 347.023 94.5804 352.379C91.2878 355.83 88.0432 360.224 84.9865 365.203C84.9081 365.313 84.8449 365.423 84.7817 365.534C84.7186 365.644 84.6555 365.739 84.593 365.849C84.357 366.242 84.1203 366.621 83.8996 367.03C83.8205 367.157 83.7421 367.282 83.6789 367.409C83.3007 368.039 82.9231 368.684 82.5601 369.314C82.1819 369.96 81.8196 370.606 81.4732 371.268C80.7646 372.559 80.0712 373.867 79.3938 375.222C79.3938 375.238 79.3778 375.253 79.3625 375.269C79.0634 375.883 78.7483 376.513 78.4485 377.127C78.4325 377.159 78.4172 377.175 78.4172 377.206C70.7138 392.928 65.0739 410.823 64.0661 422.339C63.9411 423.946 63.8787 425.427 63.9259 426.75Z" fill="#BF724B"/>
<path d="M105.13 436.274C112.659 436.306 129.102 436.173 130.705 429.58C132.582 421.775 134.171 408.119 137.42 401.532C142.382 391.511 151.887 384.135 162.451 380.497C171.223 377.469 180.669 376.844 189.917 377.807C187.031 353.806 181.729 330.037 178.807 306.186C179.227 311.569 179.374 316.983 179.142 322.39C178.588 335.504 175.531 348.769 168.345 359.732C155.436 379.478 130.323 390.352 121.943 412.407C119.453 418.967 118.451 426.488 113.502 431.49C111.139 433.87 108.26 435.342 105.13 436.274Z" fill="#A55130"/>
<path d="M78.4508 377.127C78.75 376.513 79.0651 375.883 79.3649 375.269C80.2311 375.457 81.1292 375.395 81.9954 375.064C83.303 374.56 84.2324 373.536 84.6891 372.323C83.6022 372.04 82.5152 371.709 81.4755 371.267C81.8218 370.606 82.1842 369.96 82.5624 369.314C82.9247 368.684 83.303 368.039 83.6812 367.408C83.7444 367.282 83.8228 367.156 83.9019 367.03C84.1226 366.621 84.3586 366.242 84.5953 365.849C84.6584 365.738 84.7209 365.644 84.7841 365.534C84.8473 365.423 84.9104 365.313 84.9888 365.203C88.0448 360.225 91.2902 355.829 94.5828 352.379C99.7341 347.023 105.61 342.549 111.833 338.532C113.03 337.76 114.243 337.004 115.456 336.264C115.929 335.76 116.464 335.334 117.079 335.035C117.331 334.894 117.599 334.767 117.866 334.657C118.087 334.578 118.292 334.515 118.481 334.452C120.024 334.027 121.631 334.121 123.081 334.783C124.751 335.539 126.026 336.878 126.673 338.579C127.949 341.887 126.452 345.589 123.349 347.118C124.325 347.826 125.097 348.851 125.555 350.048C126.909 353.576 125.129 357.531 121.616 358.885C121.097 359.074 120.546 359.216 119.978 359.279C120.072 359.405 120.119 359.5 120.167 359.625C121.505 363.139 119.741 367.077 116.228 368.431C115.504 368.715 114.763 368.857 114.039 368.888C113.44 368.904 112.857 368.841 112.274 368.699C112.653 371.724 110.936 374.78 107.926 375.915C107.217 376.183 106.477 376.34 105.736 376.371C104.697 376.403 103.688 376.183 102.712 375.757C102.27 375.568 101.861 375.316 101.467 375.017C100.79 374.544 100.207 373.914 99.7342 373.221C99.5606 375.789 97.938 378.168 95.3706 379.144C94.662 379.428 93.9055 379.585 93.1649 379.601C92.1412 379.648 91.1167 379.427 90.1562 378.987C89.7154 378.798 89.3052 378.561 88.9117 378.262C88.2183 377.773 87.6041 377.128 87.1314 376.403C86.9739 376.104 86.8163 375.805 86.6747 375.49C86.6435 375.412 86.6115 375.301 86.5643 375.222C86.4068 374.829 86.3124 374.418 86.2333 374.009C85.4775 375.348 84.2802 376.451 82.7359 377.034C82.0273 377.317 81.2708 377.459 80.5302 377.49C79.8215 377.506 79.1123 377.427 78.4189 377.206C78.4189 377.175 78.4349 377.159 78.4508 377.127ZM124.718 339.35C124.262 338.169 123.379 337.224 122.229 336.72C121.568 336.421 120.859 336.278 120.15 336.31C119.646 336.326 119.11 336.421 118.622 336.61C118.338 336.72 118.071 336.845 117.85 337.003C118.811 339.823 119.268 342.753 119.283 345.62C119.441 345.667 119.614 345.683 119.756 345.698C119.835 345.698 119.897 345.698 119.992 345.714C120.638 345.777 121.331 345.683 122.008 345.431C124.419 344.502 125.648 341.761 124.718 339.35ZM120.859 356.9C123.3 355.97 124.513 353.229 123.584 350.803C122.938 349.133 121.426 347.999 119.724 347.81C119.661 347.794 119.583 347.794 119.488 347.794C119.409 347.778 119.3 347.762 119.205 347.794C119 350.708 118.322 353.528 117.22 356.19C117.692 356.442 118.118 356.773 118.496 357.151C119.299 357.278 120.103 357.184 120.859 356.9ZM111.422 366.131C112.603 366.825 114.085 367.013 115.471 366.478C117.896 365.548 119.126 362.807 118.196 360.365C118.023 359.892 117.771 359.452 117.44 359.089C117.44 359.089 117.44 359.089 117.44 359.073C117.077 358.994 116.731 358.885 116.4 358.727C116.29 358.68 116.195 358.633 116.116 358.57C114.793 361.106 113.06 363.437 110.981 365.469C111.154 365.675 111.297 365.911 111.422 366.131ZM101.781 372.417C102.222 373.031 102.853 373.52 103.577 373.85C104.711 374.354 106.003 374.401 107.185 373.929C109.627 373 110.84 370.29 109.91 367.848C109.863 367.754 109.816 367.644 109.769 367.565C109.58 367.439 109.359 367.281 109.186 367.093C106.965 368.904 104.444 370.385 101.64 371.456C101.624 371.472 101.624 371.472 101.593 371.472C101.498 371.519 101.388 371.551 101.278 371.582C101.403 371.881 101.577 372.165 101.781 372.417ZM88.5487 374.449C88.5959 374.575 88.6431 374.701 88.7222 374.827C88.8485 375.111 89.0213 375.41 89.2108 375.646C89.6675 376.26 90.2818 376.749 91.0223 377.08C92.1564 377.6 93.4488 377.631 94.6301 377.175C96.5519 376.434 97.686 374.575 97.6388 372.637C95.1811 373.173 92.7081 373.378 90.2977 373.236C89.7459 373.22 89.1948 373.173 88.659 373.11C88.5327 373.094 88.3912 373.079 88.2496 373.047C88.2808 373.52 88.3592 373.992 88.5487 374.449Z" fill="#F4C540"/>
<path d="M84.5947 365.847C85.3193 366.115 86.0912 366.336 86.8477 366.508C88.3441 366.871 89.8884 367.076 91.4479 367.076C93.2907 367.123 95.15 366.918 97.0087 366.429C97.8124 366.225 98.5995 365.988 99.3873 365.689C99.6233 365.594 99.844 365.5 100.049 365.39C101.735 364.712 103.262 363.814 104.664 362.743C105.562 362.082 106.413 361.325 107.153 360.522C108.445 359.215 109.532 357.718 110.399 356.127C113.313 350.928 114.006 344.548 111.832 338.53C105.61 342.547 99.7329 347.021 94.5816 352.377C91.289 355.828 88.0443 360.222 84.9876 365.201C84.9092 365.311 84.8461 365.422 84.7829 365.532C84.7204 365.642 84.6572 365.737 84.5947 365.847Z" fill="#DD740B"/>
<path d="M67.5325 425.805C71.6601 425.884 76.7482 428.484 79.8673 431.918C83.3487 429.255 87.933 426.373 90.6426 426.42C95.2734 426.514 101.07 429.743 104 433.775C106.516 430.78 109.613 428.198 113.345 427.004C118.412 425.392 126.298 427.183 130.039 431.058C126.487 436.201 112.046 436.306 105.129 436.274C104.812 436.264 104.538 436.273 104.264 436.262C104.175 436.263 104.084 436.261 103.995 436.261C103.992 436.262 103.989 436.264 103.985 436.265L103.701 436.26C103.169 436.257 102.638 436.251 102.091 436.254C102.097 436.245 102.104 436.237 102.109 436.229L80.4337 435.809C78.8582 435.667 77.3618 435.478 75.9286 435.242C69.0442 434.123 64.1136 431.729 63.9248 426.766C65.2803 426.152 66.5407 425.789 67.5325 425.805Z" fill="white"/>
<path d="M339.993 258.117C342.163 262.87 344.291 267.646 346.274 272.489C350.307 282.28 352.869 294.04 353.597 304.6C367.103 292.235 386.399 288.692 404.668 287.714C411.045 287.365 417.473 287.266 423.876 287.063C423.914 286.956 423.952 286.828 423.989 286.701C424.015 286.826 424.04 286.931 424.065 287.056C435.965 286.639 447.787 285.846 459.115 282.371C459.846 282.155 460.554 281.919 461.283 281.662C461.26 281.6 461.236 281.516 461.213 281.453C461.257 281.515 461.301 281.577 461.387 281.616C466.055 280.04 470.559 277.985 474.816 275.516C474.786 275.243 474.713 274.972 474.64 274.7C474.775 274.927 474.93 275.153 475.106 275.359C482.877 270.848 489.863 265.016 495.654 258.171C495.363 256.473 495.029 254.777 494.654 253.103C494.5 252.286 494.324 251.491 494.127 250.697C493.801 249.211 493.433 247.748 493.045 246.285C492.246 243.34 491.364 240.418 490.355 237.523C483.379 217.124 471.465 198.457 456.15 183.2C454.839 181.896 453.486 180.594 452.113 179.335C443.897 171.736 434.788 165.097 425.003 159.661C422.809 158.431 420.575 157.265 418.302 156.185C415.405 154.747 412.45 153.438 409.455 152.235C387.25 143.165 362.814 139.634 338.895 141.822C334.775 142.198 330.682 142.742 326.616 143.454C326.758 143.892 326.901 144.35 327.022 144.81C333.814 170.171 347.036 193.683 357.516 217.755C361.942 227.933 365.952 240.697 359.126 249.286C359.025 249.416 358.925 249.567 358.803 249.698C355.968 253.044 352.254 254.798 348.089 255.682C347.398 255.833 346.686 255.963 345.973 256.073C343.812 256.38 341.561 256.522 339.285 256.56C339.512 257.036 339.72 257.536 339.947 258.012" fill="#DD740B"/>
<path d="M342.848 243.868C344.669 247.685 346.429 251.608 348.09 255.682C352.26 265.764 356.014 276.618 359.444 288.475C368.73 282.077 380.553 278.289 395.559 276.879C403.441 276.139 411.473 276.09 419.231 276.05C424.354 276.018 429.667 275.98 434.867 275.755C450.784 275.051 462.729 272.334 472.42 267.25C480.517 263.024 487.471 256.876 494.128 250.697C494.325 251.491 494.5 252.286 494.656 253.103C488.181 259.086 481.364 264.955 473.392 269.135C460.285 276.005 445.173 277.398 434.962 277.861C429.719 278.087 424.386 278.126 419.242 278.158C411.526 278.196 403.535 278.244 395.76 278.981C380.48 280.401 368.599 284.359 359.47 291.047L358.237 291.934L357.827 290.472C354.269 277.966 350.349 266.59 345.974 256.073C344.384 252.207 342.713 248.47 340.984 244.84L342.848 243.868Z" fill="#F4C540"/>
<path d="M475.106 275.36C476.98 277.677 480.654 278.433 483.235 276.867C486.043 275.166 487.762 270.636 486.06 267.828C487.758 270.552 491.756 271.509 494.481 269.853C497.228 268.196 497.269 260.941 495.654 258.172C489.863 265.016 482.877 270.849 475.106 275.36Z" fill="#F4C540"/>
<path d="M461.388 281.617C463.694 284.236 467.832 284.998 470.938 283.37C473.836 281.835 475.351 278.704 474.817 275.517C470.56 277.985 466.056 280.041 461.388 281.617Z" fill="#F4C540"/>
<path d="M459.115 282.371C447.787 285.847 435.965 286.64 424.065 287.057C424.895 290.275 428.269 292.687 431.589 292.36C434.763 292.059 438.034 290.342 438.542 287.372C438.564 290.408 441.677 293.209 444.717 292.702C447.779 292.215 450.713 288.697 449.958 285.813C451.236 288.572 454.727 290.137 457.603 289.151C460.687 288.094 462.381 284.703 461.284 281.663C460.555 281.921 459.846 282.156 459.115 282.371Z" fill="#F4C540"/>
<path d="M335.182 247.785C336.571 250.709 337.939 253.635 339.285 256.56C339.513 257.037 339.72 257.536 339.947 258.013L339.945 258.013C342.084 262.703 344.322 267.719 346.274 272.488C350.307 282.279 352.869 294.039 353.597 304.599C367.103 292.234 386.399 288.691 404.668 287.713C411.045 287.364 417.472 287.265 423.875 287.062C423.291 289.044 422.122 290.581 420.568 291.965C418.911 293.436 416.512 294.173 414.4 293.488C412.31 292.802 410.733 290.516 411.184 288.35C410.786 290.198 410.088 290.75 408.743 292.104C407.399 293.459 405.359 294.205 403.545 293.615C402.415 293.254 401.473 292.253 401.159 291.104C400.497 293.278 398.023 294.883 395.556 295.476C392.397 296.219 388.841 294.024 388.078 290.888C388.641 293.694 385.39 296.022 382.635 296.835C380.025 297.58 377.004 296.21 375.782 293.827C376.804 296.512 375.055 300.179 372.396 301.305C369.964 302.318 366.909 301.18 365.524 298.973C365.993 300.917 364.556 303.245 362.919 304.673C360.954 306.366 357.638 306.207 355.843 304.33C356.579 308.458 351.768 311.98 347.586 311.788C346.93 308.1 348.814 304.112 352.059 302.227C350.5 302.872 348.589 301.906 347.588 300.402C346.474 298.712 346.542 296.432 347.298 294.55C348.054 292.647 349.369 291.061 350.685 289.497C348.038 289.78 345.419 287.847 344.738 285.277C344.057 282.686 345.514 279.726 347.965 278.649C345.414 279.898 341.454 277.612 340.435 274.969C339.436 272.326 341.09 269 343.804 268.209C341.519 268.605 339.503 267.031 338.295 265.049C337.084 263.097 337.151 260.257 338.482 258.393C336.039 258.63 332.929 257.111 331.85 255.048C330.407 252.316 332.214 248.5 335.182 247.785Z" fill="#F4C540"/>
<path d="M424.265 181.913L425.972 183.076C434.806 184.854 444.051 183.308 452.114 179.336C450.502 177.852 448.87 176.413 447.198 175.017C440.353 169.226 432.94 164.087 425.112 159.722C425.069 159.702 425.048 159.682 425.004 159.662C422.811 158.432 420.576 157.266 418.303 156.186C417.499 165.133 419.402 174.303 424.265 181.913Z" fill="#F4C540"/>
<path d="M419.253 182.7L418.262 184.506C402.955 196.597 378.864 195.69 364.505 182.487C352.652 171.579 348.17 154.972 338.896 141.822C362.815 139.635 387.251 143.166 409.456 152.236C416.438 160.7 420.325 171.761 419.253 182.7Z" fill="#F4C540"/>
<path d="M418.403 192.907L420.109 194.072C430.61 210.521 427.302 234.392 412.724 247.366C399.733 258.927 380.921 261.284 366.36 270.793L366.312 270.764C369.912 253.749 365.306 235.358 371.387 219.065C378.211 200.782 399.27 189.066 418.403 192.907Z" fill="#F4C540"/>
<path d="M425.106 193.291L426.097 191.465C434.511 184.844 445.528 182.118 456.151 183.201C471.467 198.459 483.38 217.125 490.357 237.524C478.71 238.522 467.052 240.406 455.836 237.446C436.959 232.498 423.193 212.716 425.106 193.291Z" fill="#F4C540"/>
<path d="M440.547 242.03L444.34 264.957L432.975 244.687L432.504 231.227L440.547 242.03Z" fill="#F4C540"/>
<path d="M367.624 204.574L344.697 208.368L364.967 197.003L378.427 196.531L367.624 204.574Z" fill="#F4C540"/>
<path d="M416.074 259.822C416.14 261.71 417.726 263.188 419.614 263.122C421.503 263.056 422.981 261.472 422.915 259.582C422.849 257.694 421.264 256.216 419.375 256.282C417.486 256.348 416.009 257.933 416.074 259.822Z" fill="#F4C540"/>
<path d="M458.811 250.944C458.88 252.911 460.53 254.45 462.497 254.381C464.464 254.312 466.002 252.662 465.934 250.695C465.865 248.728 464.215 247.19 462.248 247.258C460.281 247.327 458.742 248.977 458.811 250.944Z" fill="#F4C540"/>
<path d="M354.134 225.788C354.2 227.665 355.775 229.134 357.653 229.069C359.53 229.003 360.998 227.427 360.933 225.55C360.867 223.673 359.293 222.203 357.415 222.269C355.537 222.336 354.068 223.911 354.134 225.788Z" fill="#F4C540"/>
<path d="M342.938 181.28C342.999 183.006 344.447 184.356 346.173 184.295C347.898 184.235 349.248 182.787 349.188 181.061C349.128 179.336 347.68 177.985 345.954 178.046C344.228 178.106 342.878 179.554 342.938 181.28Z" fill="#F4C540"/>
<path d="M330.183 155.735C330.243 157.461 331.691 158.811 333.417 158.75C335.142 158.69 336.493 157.242 336.432 155.516C336.372 153.791 334.924 152.44 333.198 152.501C331.472 152.561 330.122 154.009 330.183 155.735Z" fill="#F4C540"/>
<path d="M429.224 176.594L430.351 177.462C436.048 178.781 441.98 177.75 447.197 175.017C440.352 169.226 432.94 164.087 425.112 159.722C425.003 165.63 426.349 171.571 429.224 176.594Z" fill="#DD740B"/>
<path d="M409.018 175.376L408.414 176.477C399.082 183.848 384.397 183.295 375.644 175.246C368.418 168.596 365.686 158.473 360.032 150.457C374.613 149.124 389.51 151.276 403.046 156.805C407.301 161.965 409.671 168.707 409.018 175.376Z" fill="#DD740B"/>
<path d="M409.959 202.745L410.917 203.399C416.819 212.644 414.96 226.06 406.767 233.351C399.466 239.848 388.894 241.172 380.71 246.517L380.684 246.501C382.706 236.939 380.118 226.603 383.535 217.446C387.371 207.171 399.206 200.586 409.959 202.745Z" fill="#DD740B"/>
<path d="M435.406 196.469L436.078 195.229C441.786 190.738 449.261 188.888 456.468 189.623C466.859 199.975 474.942 212.638 479.675 226.478C471.773 227.156 463.864 228.434 456.254 226.426C443.447 223.069 434.107 209.648 435.406 196.469Z" fill="#DD740B"/>
<path d="M348.737 222.365C350.019 225.862 351.327 229.507 350.845 233.193C350.045 239.251 344.572 243.745 338.799 245.697C337.465 246.144 336.107 246.508 334.725 246.789C334.885 247.12 335.044 247.452 335.182 247.784C336.571 250.709 337.938 253.634 339.285 256.56C340.697 256.532 342.108 256.482 343.474 256.35C344.251 256.281 345.029 256.211 345.784 256.101C345.848 256.099 345.91 256.076 345.973 256.073C345.994 256.072 345.994 256.072 346.015 256.072C346.707 255.963 347.42 255.833 348.089 255.683C348.57 255.582 349.031 255.481 349.491 255.36C349.532 255.337 349.573 255.314 349.636 255.312C350.137 255.168 350.638 255.025 351.117 254.839C351.492 254.721 351.866 254.581 352.24 254.399C352.532 254.305 352.822 254.168 353.112 254.01C353.756 253.714 354.376 253.375 354.996 252.995C355.388 252.749 355.759 252.504 356.128 252.217C356.395 252.018 356.621 251.842 356.866 251.622C357.542 251.051 358.194 250.416 358.802 249.699C358.924 249.568 359.024 249.417 359.125 249.287C365.952 240.697 361.941 227.933 357.515 217.756C347.036 193.684 333.814 170.172 327.022 144.811C326.9 144.351 326.758 143.892 326.616 143.455C323.703 143.957 320.834 144.543 317.97 145.234C322.726 151.583 325.635 159.388 328.408 166.924C335.191 185.411 341.975 203.898 348.737 222.365Z" fill="#BC7031"/>
<path d="M41.5559 235.001C51.9057 242.767 73.346 250.518 89.5564 256.488C91.9037 257.339 94.1406 258.174 96.22 258.962C105.625 262.506 111.753 265.184 109.957 266.508C110.004 266.524 110.02 266.555 110.051 266.586C113.045 269.028 103.466 277.314 107.027 279.205C108.208 279.804 109.878 279.567 111.832 278.842C113.864 278.118 116.211 276.921 118.59 275.755C122.465 273.864 126.482 272.1 129.491 272.636C140.062 274.526 148.946 278.212 157.091 279.913C162.038 280.969 166.716 281.284 171.332 280.04C173.175 279.567 175.002 278.968 176.798 278.323C189.637 273.644 201.232 264.963 207.014 253.574C208.416 250.817 209.471 247.887 210.117 244.831C210.211 245.713 210.353 246.564 210.557 247.43C210.636 247.871 210.746 248.296 210.872 248.738C213.692 258.899 223.066 267.736 233.652 270.619C248.334 274.636 263.976 270.115 277.997 264.192C286.204 260.71 294.318 256.709 302.651 253.558C308.527 251.305 314.529 249.493 320.767 248.58C326.785 247.698 333.024 247.666 338.804 245.697C344.57 243.744 350.036 239.254 350.84 233.189C351.329 229.502 350.021 225.864 348.729 222.366C344.539 210.898 340.317 199.398 336.095 187.914C333.543 180.919 330.975 173.925 328.407 166.93C325.635 159.384 322.72 151.587 317.963 145.238C316.64 143.442 315.175 141.773 313.521 140.244C308.18 135.329 301.737 132.541 294.743 131.092C283.952 128.902 271.885 129.973 260.668 131.501C259.913 131.627 259.172 131.722 258.416 131.848C258.888 131.816 258.069 130.713 256.084 129.012C254.95 128.035 253.438 126.869 251.563 125.593C240 117.748 214.653 105.713 180.389 109.951C153.703 113.211 128.277 129.516 116.431 153.666C113.218 160.188 111.012 167.198 108.429 173.987C107.405 176.744 106.318 179.438 105.089 182.085C104.065 184.259 102.946 186.385 101.67 188.465C95.038 199.177 82.0577 207.794 70.1484 203.636C60.0505 200.107 54.6 188.45 55.1671 177.769C55.766 167.104 61.1061 157.321 66.9189 148.341C72.7163 139.393 79.2225 130.65 82.6248 120.536C89.6196 99.8208 81.27 74.9464 63.2008 62.6428C58.207 59.2399 50.5037 57.1924 46.8807 62.0126C45.5099 63.8554 44.8013 66.5657 43.6353 68.5347C43.6194 68.5819 43.604 68.6132 43.5721 68.6604C42.8163 69.968 41.8238 70.9285 40.2795 71.0549C38.0897 71.2284 36.0263 69.3065 33.8997 69.8417C32.4033 70.2352 31.6628 71.6691 31.6156 73.2287C31.5684 74.3315 31.8834 75.4969 32.5136 76.3797C34.0732 78.5063 36.7037 79.4828 38.9726 80.7904C49.0073 86.4929 53.2764 99.3163 51.9376 110.769C50.6147 122.222 44.7228 132.619 38.4687 142.307C32.2304 152.011 25.4252 161.573 21.8647 172.553C14.6486 194.688 22.9509 220.996 41.5559 235.001Z" fill="#CE7C52"/>
<path d="M207.584 154.854C212.104 158.681 218.724 159.862 224.703 158.999C231.794 157.971 238.253 154.54 244.68 151.384C253.407 147.093 262.442 143.17 272.02 141.507C281.598 139.843 291.874 140.622 300.367 145.322C314.689 153.256 321.033 170.029 329.928 183.803C331.243 185.823 333.028 188.017 335.43 187.975C335.662 187.967 335.892 187.938 336.102 187.909C333.538 180.914 330.974 173.919 328.409 166.924C325.635 159.388 322.727 151.582 317.971 145.233C316.643 143.445 315.171 141.768 313.515 140.244C308.177 135.328 301.732 132.539 294.745 131.096C283.956 128.902 271.89 129.977 260.663 131.509C259.908 131.62 259.174 131.73 258.418 131.841C258.396 131.841 258.396 131.841 258.396 131.841C259.152 131.73 251.45 146.655 227.409 153.19C220.955 154.934 214.301 155.188 207.584 154.854Z" fill="#BF724B"/>
<path d="M210.122 244.824C210.216 245.707 210.352 246.567 210.551 247.424C210.629 247.864 210.75 248.303 210.871 248.742C213.694 258.891 223.07 267.735 233.651 270.612C248.341 274.631 263.977 270.12 278.002 264.189C286.21 260.717 294.315 256.701 302.66 253.562C302.66 253.562 250.709 263.885 235.589 247.279C222.479 232.879 218.292 212.793 216.111 193.628C215.996 213.833 209.47 247.884 210.122 244.824Z" fill="#BF724B"/>
<path d="M41.5562 235.001C48.0782 239.9 59.0263 244.783 70.2743 249.226C71.0308 249.257 71.8026 249.273 72.5584 249.257C78.7182 249.179 84.0271 246.689 89.3672 244.137C33.8581 241.679 22.3283 192.264 28.5154 180.187C51.446 135.424 62.3343 117.953 60.8691 103.397C60.0973 95.8513 52.8665 77.5933 43.6349 68.5352C43.6189 68.5824 43.6036 68.6136 43.5717 68.6608C42.8159 69.9684 41.8234 70.929 40.2791 71.0553C38.0894 71.2288 36.026 69.307 33.8994 69.8421C32.403 70.2356 31.6624 71.6696 31.6152 73.2291C31.568 74.332 31.8831 75.4973 32.5133 76.3801C34.0728 78.5067 36.7034 79.4833 38.9722 80.7909C49.0069 86.4933 53.2761 99.3167 51.9372 110.769C50.6143 122.222 44.7225 132.619 38.4683 142.308C32.2301 152.012 25.4248 161.574 21.8643 172.554C14.6489 194.688 22.9512 220.996 41.5562 235.001Z" fill="#BF724B"/>
<path d="M180.349 190.86C170.435 174.923 146.169 180.974 144.971 200.018C155.167 184.58 164.723 183.285 180.349 190.86Z" fill="#2B1D1A"/>
<path d="M128.043 256.587C129.722 247.855 123.849 238.329 115.291 235.915C106.732 233.501 96.7428 238.562 93.6343 246.893C91.6786 252.135 92.3687 258.289 95.4359 262.968C104.013 276.049 125.071 272.047 128.043 256.587Z" fill="#F4C540"/>
<path d="M38.9414 244.453C40.0442 251.195 45.3531 257.339 51.1658 261.341C75.7883 278.26 104.459 274.825 115.566 266.98C121.158 263.026 123.584 255.118 121.142 248.723C118.717 242.311 111.659 237.994 104.853 238.751C99.2135 239.381 94.2829 241.792 89.3676 244.138C84.0275 246.69 78.7186 249.179 72.5588 249.258C71.803 249.274 71.0312 249.258 70.2747 249.227C60.6807 248.991 51.1346 246.407 42.6907 241.792C40.8161 240.767 38.5944 242.342 38.9414 244.453Z" fill="#FCFCFB"/>
<path d="M105.088 182.079C105.256 182.074 105.425 182.068 105.571 182.042C119.051 180.389 127.679 167.245 139.148 159.97C151.793 151.957 167.715 151.378 182.64 152.459C190.905 153.055 199.283 154.428 207.584 154.854C214.301 155.188 220.956 154.934 227.411 153.19C251.452 146.655 259.153 131.73 258.398 131.841C258.398 131.841 258.398 131.841 258.419 131.84C258.504 131.837 258.544 131.794 258.541 131.709C258.54 131.667 258.517 131.625 258.494 131.564C258.356 131.252 257.916 130.719 257.152 129.987L256.738 129.6C256.542 129.418 256.324 129.214 256.085 129.012C254.954 128.04 253.437 126.87 251.558 125.586C240.002 117.746 214.656 105.707 180.392 109.943C153.706 113.218 128.277 129.522 116.428 153.659C113.219 160.182 111.019 167.196 108.431 173.992C107.411 176.748 106.324 179.443 105.088 182.079Z" fill="#F4C540"/>
<path d="M108.432 173.992C110.566 174.107 112.821 173.48 114.702 172.402C117.844 170.605 120.256 167.821 122.824 165.285C132.748 155.428 145.711 148.669 159.476 146.121C171.146 143.963 183.152 144.808 195.017 145.215C206.882 145.621 219.044 145.512 230.253 141.62C238.795 138.643 246.761 133.092 251.558 125.586C240.003 117.746 214.657 105.707 180.392 109.943C153.707 113.218 128.278 129.522 116.429 153.659C115.326 155.891 114.352 158.181 113.443 160.511C112.666 162.415 111.954 164.359 111.263 166.302L111.264 166.323C110.32 168.886 109.397 171.449 108.432 173.992Z" fill="#DD740B"/>
<path d="M231.437 128.663C231.498 130.407 232.962 131.773 234.707 131.712C236.452 131.65 237.816 130.187 237.755 128.442C237.694 126.697 236.23 125.332 234.486 125.394C232.74 125.454 231.375 126.918 231.437 128.663Z" fill="#F4C540"/>
<path d="M215.545 134.307C215.606 136.052 217.07 137.417 218.814 137.356C220.559 137.295 221.924 135.831 221.863 134.087C221.802 132.342 220.338 130.977 218.594 131.038C216.849 131.099 215.484 132.562 215.545 134.307Z" fill="#F4C540"/>
<path d="M196.358 136.217C196.42 137.961 197.883 139.326 199.628 139.265C201.373 139.204 202.738 137.74 202.677 135.996C202.616 134.251 201.152 132.886 199.408 132.947C197.662 133.008 196.297 134.472 196.358 136.217Z" fill="#F4C540"/>
<path d="M178.457 136.844C178.518 138.589 179.982 139.953 181.726 139.892C183.471 139.831 184.836 138.367 184.775 136.623C184.714 134.878 183.25 133.513 181.506 133.574C179.761 133.635 178.396 135.099 178.457 136.844Z" fill="#F4C540"/>
<path d="M158.453 138.105C158.514 139.85 159.978 141.214 161.722 141.153C163.467 141.092 164.832 139.628 164.771 137.883C164.71 136.138 163.246 134.773 161.502 134.834C159.757 134.896 158.392 136.36 158.453 138.105Z" fill="#F4C540"/>
<path d="M141.147 142.678C141.209 144.423 142.672 145.787 144.417 145.726C146.162 145.665 147.527 144.201 147.465 142.457C147.404 140.712 145.941 139.347 144.196 139.408C142.452 139.469 141.086 140.933 141.147 142.678Z" fill="#F4C540"/>
<path d="M125.621 150.922C125.682 152.667 127.146 154.032 128.89 153.971C130.635 153.91 132 152.446 131.939 150.701C131.878 148.956 130.414 147.592 128.67 147.653C126.925 147.713 125.56 149.177 125.621 150.922Z" fill="#F4C540"/>
<path d="M111.262 166.301L111.262 166.323C111.758 166.622 112.354 166.791 112.965 166.769C114.713 166.708 116.075 165.248 116.014 163.5C115.96 161.984 114.864 160.778 113.442 160.511C112.665 162.414 111.953 164.358 111.262 166.301Z" fill="#F4C540"/>
</svg>
